<svg width="23" height="19" viewBox="0 0 23 19" fill="none" xmlns="http://www.w3.org/2000/svg">
<path id="Vector" d="M21.5331 7.00002H16.7444L12.3656 0.44002C12.1756 0.16002 11.8557 0.0200195 11.5358 0.0200195C11.2159 0.0200195 10.896 0.16002 10.706 0.45002L6.32723 7.00002H1.53854C0.988695 7.00002 0.538818 7.45002 0.538818 8.00002C0.538818 8.09002 0.548816 8.18002 0.578807 8.27002L3.11811 17.54C3.34805 18.38 4.11784 19 5.03759 19H18.034C18.9538 19 19.7236 18.38 19.9635 17.54L22.5028 8.27002L22.5328 8.00002C22.5328 7.45002 22.0829 7.00002 21.5331 7.00002ZM11.5358 2.80002L14.335 7.00002H8.73657L11.5358 2.80002ZM18.034 17L5.04758 17.01L2.84819 9.00002H20.2334L18.034 17ZM11.5358 11C10.4361 11 9.53635 11.9 9.53635 13C9.53635 14.1 10.4361 15 11.5358 15C12.6355 15 13.5353 14.1 13.5353 13C13.5353 11.9 12.6355 11 11.5358 11Z" fill="#0E0E0E"/>
</svg>
