<svg width="21" height="20" viewBox="0 0 21 20" fill="none" xmlns="http://www.w3.org/2000/svg">
<path d="M10.5489 0C5.03041 0 0.551636 4.48 0.551636 10C0.551636 15.52 5.03041 20 10.5489 20C16.0674 20 20.5462 15.52 20.5462 10C20.5462 4.48 16.0674 0 10.5489 0ZM5.90017 16.5C7.20981 15.56 8.80937 15 10.5489 15C12.2884 15 13.888 15.56 15.1976 16.5C13.888 17.44 12.2884 18 10.5489 18C8.80937 18 7.20981 17.44 5.90017 16.5ZM16.6872 15.12C14.9977 13.8 12.8683 13 10.5489 13C8.22953 13 6.10011 13.8 4.41058 15.12C3.2509 13.73 2.55109 11.95 2.55109 10C2.55109 5.58 6.13011 2 10.5489 2C14.9677 2 18.5467 5.58 18.5467 10C18.5467 11.95 17.8469 13.73 16.6872 15.12Z" fill="#0E0E0E"/>
</svg>
